#tb 0: 1/25
0,          0,          0,        1,  3339072, 0xcb16f53e
0,          1,          1,        1,  3339072, 0x6f1da8ec
0,          2,          2,        1,  3339072, 0x978dae98
0,          3,          3,        1,  3339072, 0x34becc01
0,          4,          4,        1,  3339072, 0x9c900137
0,          5,          5,        1,  3339072, 0x02fe1d40
0,          6,          6,        1,  3339072, 0xda9703b6
0,          7,          7,        1,  3339072, 0x73e5ff5a
0,          8,          8,        1,  3339072, 0xeec94fab
0,          9,          9,        1,  3339072, 0xf4a36fc5
